<svg width="4000" height="4000" viewBox="0 0 4000 4000" fill="none" xmlns="http://www.w3.org/2000/svg">
<rect width="4000" height="4000" fill="black"/>
<path d="M1232.46 1697.48H1705.55V1616.58H1149.52V2445H1705.55V2365.13H1232.46V2039.5L1630.8 2041.54V1960.65H1232.46V1697.48ZM2226.09 2083.53H2129.84L2329.52 2446.02H2427.82L2226.09 2083.53ZM2410.41 1850.06C2410.41 1675.98 2243.5 1616.58 2139.05 1616.58L1797.04 1617.61V2446.02H1882.03V2083.53H1945.52H2226.09C2287.53 2074.31 2410.41 2024.14 2410.41 1850.06ZM2155.44 1999.56H1882.03V1702.6H2155.44C2244.52 1702.6 2326.44 1760.97 2326.44 1850.06C2326.44 1955.53 2269.1 1999.56 2155.44 1999.56ZM2844.03 1600.2C2735.48 1600.2 2638.2 1638.09 2568.57 1708.74C2493.82 1786.57 2453.88 1897.16 2453.88 2031.3C2453.88 2293.45 2606.46 2462.41 2844.03 2462.41C3032.44 2462.41 3234.17 2348.74 3234.17 2031.3C3234.17 1765.06 3080.57 1600.2 2844.03 1600.2ZM2844.03 2378.44C2693.5 2378.44 2537.85 2287.3 2537.85 2031.3C2537.85 1782.47 2693.5 1684.17 2844.03 1684.17C2993.53 1684.17 3149.18 1773.26 3149.18 2031.3C3149.18 2253.51 3035.52 2378.44 2844.03 2378.44ZM3370.78 1821.38C3370.78 1731.27 3449.63 1684.17 3562.27 1684.17C3676.96 1684.17 3745.56 1752.78 3745.56 1843.91H3829.53C3829.53 1701.58 3727.13 1600.2 3562.27 1600.2C3386.14 1600.2 3286.81 1696.46 3286.81 1818.31C3286.81 2157.26 3783.45 1973.96 3783.45 2207.43C3783.45 2294.47 3727.13 2378.44 3574.56 2378.44C3433.24 2378.44 3350.3 2286.28 3350.3 2199.24H3266.33C3266.33 2320.07 3367.71 2462.41 3566.36 2462.41C3789.6 2462.41 3866.4 2325.19 3866.4 2217.67C3866.4 1882.82 3370.78 2067.14 3370.78 1821.38Z" fill="white"/>
<path d="M549.693 2484.18C476.208 2483.8 412.193 2464.3 357.648 2425.66C303.481 2387.02 261.436 2333.8 231.511 2266C201.966 2197.82 187.193 2119.22 187.193 2030.2C187.193 1942.7 202.913 1865.24 234.352 1797.82C265.792 1730.39 309.163 1677.55 364.466 1639.3C420.148 1601.04 483.973 1581.91 555.943 1581.91C612.004 1581.91 660.867 1593.27 702.534 1616C744.201 1638.35 779.049 1670.36 807.08 1712.02C835.489 1753.31 857.648 1801.8 873.557 1857.48H911.057L930.375 2027.36L1030.94 2466H935.489L837.193 2012.02C829.996 1973.39 819.39 1934.18 805.375 1894.41C791.36 1854.64 773.178 1818.08 750.83 1784.75C728.86 1751.42 701.777 1724.71 669.58 1704.64C637.383 1684.56 599.504 1674.52 555.943 1674.52C503.67 1674.52 457.269 1689.67 416.739 1719.98C376.587 1750.28 345.148 1792.33 322.42 1846.11C299.693 1899.9 288.33 1961.83 288.33 2031.91C288.33 2101.23 299.125 2163.16 320.716 2217.7C342.686 2271.87 373.178 2314.48 412.193 2345.55C451.587 2376.23 497.42 2391.57 549.693 2391.57C590.602 2391.57 627.155 2381.91 659.352 2362.59C691.549 2343.27 719.39 2317.33 742.875 2284.75C766.739 2252.17 786.436 2215.43 801.966 2174.52C817.496 2133.61 829.049 2091.95 836.625 2049.52L924.125 1593.27H1019.58L930.375 2031.91L912.193 2206.34H878.67C861.246 2267.7 836.814 2319.22 805.375 2360.89C773.936 2402.17 736.625 2433.23 693.443 2454.07C650.64 2474.52 602.723 2484.56 549.693 2484.18Z" fill="url(#paint0_linear_560_22)"/>
<defs>
<linearGradient id="paint0_linear_560_22" x1="1013.5" y1="1569.5" x2="275.5" y2="2466" gradientUnits="userSpaceOnUse">
<stop offset="0.27473" stop-color="#FEEF63"/>
<stop offset="0.577307" stop-color="#58F9B5"/>
<stop offset="0.970233" stop-color="#C153E7"/>
</linearGradient>
</defs>
</svg>
