<svg width="4000" height="4000" viewBox="0 0 4000 4000" fill="none" xmlns="http://www.w3.org/2000/svg">
<path d="M1890.24 2903.09C1752.45 2902.38 1632.42 2865.8 1530.15 2793.36C1428.59 2720.92 1349.75 2621.13 1293.65 2494C1238.25 2366.16 1210.55 2218.79 1210.55 2051.88C1210.55 1887.82 1240.02 1742.58 1298.97 1616.16C1357.92 1489.74 1439.24 1390.66 1542.94 1318.93C1647.34 1247.2 1767.01 1211.33 1901.96 1211.33C2007.07 1211.33 2098.69 1232.64 2176.81 1275.25C2254.94 1317.15 2320.28 1377.17 2372.84 1455.29C2426.1 1532.71 2467.65 1623.62 2497.48 1728.02H2567.79L2604.02 2046.56L2792.58 2869H2613.6L2429.3 2017.79C2415.81 1945.35 2395.92 1871.84 2369.64 1797.27C2343.36 1722.69 2309.27 1654.16 2267.37 1591.66C2226.17 1529.16 2175.39 1479.09 2115.02 1441.44C2054.65 1403.8 1983.63 1384.98 1901.96 1384.98C1803.94 1384.98 1716.94 1413.39 1640.95 1470.21C1565.66 1527.03 1506.71 1605.86 1464.1 1706.71C1421.49 1807.57 1400.18 1923.69 1400.18 2055.08C1400.18 2185.05 1420.42 2301.17 1460.9 2403.45C1502.1 2505.01 1559.27 2584.91 1632.42 2643.15C1706.29 2700.68 1792.23 2729.44 1890.24 2729.44C1966.94 2729.44 2035.48 2711.33 2095.85 2675.11C2156.22 2638.89 2208.42 2590.24 2252.45 2529.16C2297.2 2468.08 2334.13 2399.18 2363.25 2322.48C2392.37 2245.78 2414.03 2167.65 2428.23 2088.11L2592.3 1232.64H2771.27L2604.02 2055.08L2569.92 2382.14H2507.07C2474.4 2497.2 2428.59 2593.79 2369.64 2671.91C2310.69 2749.33 2240.73 2807.57 2159.77 2846.63C2079.51 2884.98 1989.67 2903.8 1890.24 2903.09Z" fill="url(#paint0_linear_565_25)"/>
<defs>
<linearGradient id="paint0_linear_565_25" x1="2760.02" y1="1188.31" x2="1376.33" y2="2869.52" gradientUnits="userSpaceOnUse">
<stop offset="0.27473" stop-color="#FEEF63"/>
<stop offset="0.577307" stop-color="#58F9B5"/>
<stop offset="0.970233" stop-color="#C153E7"/>
</linearGradient>
</defs>
</svg>
